<svg version="1.1" id="Layer_1" xmlns="http://www.w3.org/2000/svg" xmlns:xlink="http://www.w3.org/1999/xlink" x="0px" y="0px"
	 viewBox="0 0 1136.5 327.2" style="enable-background:new 0 0 1136.5 327.2;" xml:space="preserve">
<style type="text/css">
	.st0{fill:#282828;}
</style>
<g>
	<path class="st0" d="M1068.1,0H0v327.2h1068.1l68.4-68.4V68.4L1068.1,0z M1111.4,248.4l-53.7,53.7H25.1v-277h1032.5l53.7,53.7
		V248.4z"/>
	<path class="st0" d="M724.8,87.4h-45.4L623,144.2v-57h-33.9v152.9H623v-52.6l13.5-13.5c1.1-1.1,2.2-0.9,3.1,0.2l46.5,66h42.8
		l-65.3-91.3L724.8,87.4z"/>
	<path class="st0" d="M917.6,87.2v152.9h101.6l30.1-30.1v-92.6l-30.1-30.1L917.6,87.2L917.6,87.2z M1014.8,201.8
		c0,4.8-2.8,7.6-7.7,7.6h-55.7v-91.7h55.7c4.8,0,7.7,2.8,7.7,7.6V201.8z"/>
	<path class="st0" d="M756.9,240.1h122.3v-30.6H794c-2,0-3.3-1.3-3.3-3.3v-25.1c0-2,1.3-3.3,3.3-3.3h74.5v-29.5H794
		c-2,0-3.3-1.3-3.3-3.3v-24c0-2,1.3-3.3,3.3-3.3h85.2V87.2H756.9V240.1z"/>
	<path class="st0" d="M447.6,87.2l-30.1,30.1v92.6l30.1,30.1h72.1l30.1-30.1v-22.1h-34.5v14c0,4.8-2.8,7.6-7.6,7.6h-48.1
		c-4.8,0-7.7-2.8-7.7-7.6v-76.4c0-4.8,2.8-7.6,7.7-7.6h48.1c4.8,0,7.6,2.8,7.6,7.6v14h34.5v-22.1l-30.1-30.1L447.6,87.2L447.6,87.2z
		"/>
	<path class="st0" d="M258.6,240.1h122.3v-30.6h-85.2c-2,0-3.3-1.3-3.3-3.3v-25.1c0-2,1.3-3.3,3.3-3.3h74.5v-29.5h-74.5
		c-2,0-3.3-1.3-3.3-3.3v-24c0-2,1.3-3.3,3.3-3.3h85.2V87.2H258.6V240.1z"/>
	<path class="st0" d="M87.2,87.2v152.9h101.1l30.6-30.1v-92.6l-30.1-30.1L87.2,87.2L87.2,87.2z M184.4,201.8c0,4.8-2.8,7.6-7.6,7.6
		H121v-91.7h55.7c4.8,0,7.6,2.8,7.6,7.6V201.8z"/>
</g>
</svg>
